<svg xmlns="http://www.w3.org/2000/svg" width="27" height="27" viewBox="0 0 27 27">
    <g fill="#A9ABB7" fill-rule="evenodd">
        <path d="M10.189 12.374a.378.378 0 0 1-.378-.378V7.592a.378.378 0 0 0-.378-.378H4.986a.378.378 0 0 0-.377.378v10.654c0 .209.169.378.377.378h9.557a.378.378 0 0 0 .378-.378v-5.494a.378.378 0 0 0-.378-.378H10.19z"/>
        <path d="M14.6 11.008l-3.42-3.425c-.193-.194-.526-.058-.526.215v3.424c0 .169.138.305.308.305h3.418a.305.305 0 0 0 .22-.52"/>
        <path fill-rule="nonzero" d="M20.327 16.989v-2.663H17.61v-1.042h2.718v-2.719h1.1v2.719h2.563v1.042h-2.564v2.663z"/>
    </g>
</svg>
