<svg xmlns="http://www.w3.org/2000/svg" xmlns:xlink="http://www.w3.org/1999/xlink" width="19" height="19" viewBox="0 0 19 19">
    <defs>
        <path id="a" d="M0 0h13v11H0z"/>
    </defs>
    <g fill="none" fill-rule="evenodd">
        <g transform="translate(3 4)">
            <path fill="#FFF" d="M5.914 1.435L5.771.792a1.045 1.045 0 0 0-.498-.655A.812.812 0 0 0 4.82 0H.776a.674.674 0 0 0-.423.137A.787.787 0 0 0 0 .792v9.452c0 .418.344.756.77.756h11.46c.426 0 .77-.338.77-.756V2.191a.763.763 0 0 0-.77-.756H5.915z" mask="url(#b)"/>
        </g>
    </g>
</svg>
