<svg xmlns="http://www.w3.org/2000/svg" xmlns:xlink="http://www.w3.org/1999/xlink" width="29" height="28" viewBox="0 0 29 28">
    <defs>
        <path id="b" d="M138 0h1082v645H138z"/>
        <filter id="a" width="107.7%" height="112.9%" x="-3.8%" y="-4.3%" filterUnits="objectBoundingBox">
            <feOffset dy="14" in="SourceAlpha" result="shadowOffsetOuter1"/>
            <feGaussianBlur in="shadowOffsetOuter1" result="shadowBlurOuter1" stdDeviation="11.5"/>
            <feColorMatrix in="shadowBlurOuter1" values="0 0 0 0 0.381567029 0 0 0 0 0.381450698 0 0 0 0 0.381450698 0 0 0 0.0906086101 0"/>
        </filter>
        <path id="c" d="M0 0h26.4v13.6H0z"/>
    </defs>
    <g fill="none" fill-rule="evenodd">
        <path fill="#F9FBFC" d="M-1100-379H820V735h-1920z"/>
        <g transform="translate(-842 -225)">
            <use fill="#000" filter="url(#a)" xlink:href="#b"/>
            <use fill="#FFF" xlink:href="#b"/>
        </g>
        <g transform="translate(-380.5 -11)">
            <rect width="429" height="50" fill="#F1F2F7" rx="5"/>
            <g opacity=".5" transform="translate(381.8 18.2)">
                <mask id="d" fill="#fff">
                    <use xlink:href="#c"/>
                </mask>
                <path fill="#A9ABB7" d="M13.2 12.037c-2.83 0-5.123-2.345-5.123-5.237S10.37 1.563 13.2 1.563c2.83 0 5.123 2.345 5.123 5.237s-2.294 5.237-5.123 5.237M13.2 0C7.514 0 2.564 2.746 0 6.8c2.564 4.054 7.514 6.8 13.2 6.8 5.686 0 10.636-2.746 13.2-6.8C23.836 2.746 18.886 0 13.2 0" mask="url(#d)"/>
            </g>
        </g>
    </g>
</svg>
