<svg xmlns="http://www.w3.org/2000/svg" width="30" height="30" viewBox="0 0 30 30">
    <g fill="#9200FF" fill-rule="evenodd">
        <path d="M14.908 22.621c-1.53-.23-2.961-.86-4.108-1.854-.054-.047-.106-.096-.159-.145a7.737 7.737 0 0 1-.87-.95 7.788 7.788 0 0 1-1.649-4.809c0-1.819.614-3.54 1.741-4.93l.067-.082c.154-.184.315-.365.487-.537a7.833 7.833 0 0 1 1.634-1.247 8.353 8.353 0 0 1 2.857-.974 2.547 2.547 0 0 0 1.68-1.01c.407-.552.575-1.228.473-1.905a2.544 2.544 0 0 0-1.012-1.68 2.537 2.537 0 0 0-1.773-.485V2.01l-.056.01-.074.007c-.227.034-.452.075-.675.12a12.847 12.847 0 0 0-6.678 3.545c-5.05 5.05-5.057 13.26-.025 18.32l.028.027.004.004.003.004a12.864 12.864 0 0 0 7.473 3.671v-.016a2.539 2.539 0 0 0 1.773-.485c.55-.406.91-1.003 1.012-1.68a2.549 2.549 0 0 0-.473-1.904 2.546 2.546 0 0 0-1.68-1.011M23.08 9.925c2.059 0 3.733-1.627 3.733-3.627a3.737 3.737 0 0 0-3.733-3.733c-2 0-3.627 1.675-3.627 3.733 0 2 1.627 3.627 3.627 3.627M26.653 20.234c-.343-1.194-1.297-2.617-3.888-2.617-2 0-3.628 1.628-3.628 3.628a3.624 3.624 0 0 0 3.258 3.608v4.442l.567-.355c2.956-1.853 4.411-6.202 3.69-8.706"/>
    </g>
</svg>
