<svg xmlns="http://www.w3.org/2000/svg" width="38" height="38" viewBox="0 0 38 38">
    <defs>
        <filter id="prefix__a" width="142.1%" height="142.1%" x="-21.1%" y="-21.1%" filterUnits="objectBoundingBox">
            <feOffset dy="1" in="SourceAlpha" result="shadowOffsetOuter1"/>
            <feGaussianBlur in="shadowOffsetOuter1" result="shadowBlurOuter1" stdDeviation="1.5"/>
            <feColorMatrix in="shadowBlurOuter1" result="shadowMatrixOuter1" values="0 0 0 0 0.952941176 0 0 0 0 0.882352941 0 0 0 0 0.992156863 0 0 0 0.650458916 0"/>
            <feMerge>
                <feMergeNode in="shadowMatrixOuter1"/>
                <feMergeNode in="SourceGraphic"/>
            </feMerge>
        </filter>
    </defs>
    <g fill="none" fill-rule="evenodd" filter="url(#prefix__a)">
        <circle cx="19" cy="18.5" r="15.323" fill="#F3E1FD"/>
        <g transform="translate(12.871 11.645)">
            <path fill="#8F00FF" d="M11.258 4.767c.552 0 1 .448 1 1v6.172c0 .552-.448 1-1 1H1c-.552 0-1-.448-1-1V5.767c0-.552.448-1 1-1h10.258zM6.177 6.878c-.847 0-1.533.686-1.533 1.532 0 .654.41 1.211.985 1.432v.513c0 .276.224.5.5.5s.5-.224.5-.5v-.48c.626-.194 1.08-.776 1.08-1.465 0-.846-.686-1.532-1.532-1.532z"/>
            <rect width="4.903" height="12" x="3.677" stroke="#8F00FF" stroke-width="1.4" rx="2.452"/>
        </g>
    </g>
</svg>
